# xmcd
#
# Track frame offsets:
#	150
#	13125
#	26405
#	39806
#	52104
#	66455
#	85283
#	104483
#	122867
#	140256
#	164344
#	183766
#	207245
#	225081
#	248242
#	265263
#	284879
#	297451
#
# Disc length: 4183
#
# Revision: 2
# Processed by: cddbd v1.5.1PL0 Copyright (c) Steve Scherf et al.
# Submitted via: CDex 1.50
# Normalized: r0:DSETVAR1,TDELIM( - ),TSWAP
#
DISCID=0a105512
DTITLE=Various Artist - the very best of Motown
DYEAR=2002
DGENRE=Rhythmic Soul
TTITLE0=Stevie Wonder - Uptight
TTITLE1=The Temptations - Who's Lovin'You
TTITLE2=The Four Tops - Reach Out, I'll Be There
TTITLE3=The Supremes - You Can#T Hurry Love
TTITLE4=Marvin Gaye - I Heard It Through The Grapevine
TTITLE5=Michael Jackson - Ain't No Sunshine
TTITLE6=The Commodores - Easy
TTITLE7=Diana Ross - Upside Down
TTITLE8=Bruce Willis - Respect Yourself
TTITLE9=Johnny Gill - My, My, My
TTITLE10=Shanice - I Love Your Smile
TTITLE11=Zhané - Hey, Mr. DJ
TTITLE12=Boyz II Men - I'll Make Love To You
TTITLE13=Rosie Gaines - Closer Than Close
TTITLE14=Queen Latifah - It's Alright
TTITLE15=Brian Micknight - Back At One
TTITLE16=702 - Where My Grils At
TTITLE17=Sparkle - Lovin' A Man
EXTD=YEAR: 2002
EXTT0=
EXTT1=
EXTT2=
EXTT3=
EXTT4=
EXTT5=
EXTT6=
EXTT7=
EXTT8=
EXTT9=
EXTT10=
EXTT11=
EXTT12=
EXTT13=
EXTT14=
EXTT15=
EXTT16=
EXTT17=
PLAYORDER=
